<svg xmlns="http://www.w3.org/2000/svg" viewBox="0 0 64 64" fill="none">
  <defs>
    <clipPath id="heartClip">
      <path d="M32 56c-.9 0-1.8-.3-2.5-.9L25 51C12.7 39.9 7 34.7 7 26.4 7 19.7 12.2 14.5 18.8 14.5c3.8 0 7.4 1.7 9.8 4.5 2.4-2.8 6-4.5 9.8-4.5 6.6 0 11.8 5.2 11.8 11.9 0 8.3-5.7 13.5-18 24.6l-4.5 4.1c-.7.6-1.6.9-2.5.9z"/>
    </clipPath>
  </defs>

  <g clip-path="url(#heartClip)">
    <rect x="0" y="0" width="32" height="64" fill="#2D6BA5" />
    <rect x="32" y="0" width="32" height="64" fill="#4FB39B" />
  </g>

  <path d="M32 56c-.9 0-1.8-.3-2.5-.9L25 51C12.7 39.9 7 34.7 7 26.4 7 19.7 12.2 14.5 18.8 14.5c3.8 0 7.4 1.7 9.8 4.5 2.4-2.8 6-4.5 9.8-4.5 6.6 0 11.8 5.2 11.8 11.9 0 8.3-5.7 13.5-18 24.6l-4.5 4.1c-.7.6-1.6.9-2.5.9z" stroke="#FFFFFF" stroke-opacity=".3" stroke-width="1.5"/>

  <rect x="29" y="24" width="6" height="16" rx="2" fill="#FFFFFF" />
  <rect x="24" y="29" width="16" height="6" rx="2" fill="#FFFFFF" />
</svg>
